<?xml version="1.0" standalone="no"?>
<!DOCTYPE svg PUBLIC "-//W3C//DTD SVG 20010904//EN"
 "http://www.w3.org/TR/2001/REC-SVG-20010904/DTD/svg10.dtd">
<svg version="1.0" xmlns="http://www.w3.org/2000/svg"
 width="120.000000pt" height="122.000000pt" viewBox="0 0 120.000000 122.000000"
 preserveAspectRatio="xMidYMid meet">
<metadata>
Created by potrace 1.13, written by Peter Selinger 2001-2015
</metadata>
<g transform="translate(0.000000,122.000000) scale(0.100000,-0.100000)"
fill="#000000" stroke="none">
<path d="M510 1083 c1 -5 7 -19 15 -33 33 -58 8 -68 -30 -13 l-25 38 0 -29 c0
-18 6 -29 18 -33 10 -2 26 -18 37 -34 11 -16 30 -32 42 -35 12 -3 21 -11 20
-17 -1 -6 7 -13 19 -15 11 -1 48 -31 82 -65 l62 -63 -35 -13 c-36 -12 -37 -12
-163 67 -99 62 -129 77 -137 67 -15 -19 -47 5 -34 26 8 12 10 12 19 -1 8 -13
10 -12 10 3 0 9 -5 17 -11 17 -7 0 -17 8 -24 17 -12 16 -12 14 -8 -10 4 -20 1
-27 -11 -27 -9 0 -16 6 -16 14 0 14 -38 86 -45 86 -2 0 2 -15 10 -34 13 -30
13 -36 -1 -47 -8 -7 -14 -8 -12 -3 2 6 -9 24 -24 42 l-27 32 3 -28 c3 -28 65
-81 97 -82 9 0 19 -6 22 -14 3 -8 14 -14 24 -14 10 1 75 -32 145 -72 120 -70
125 -75 112 -95 -22 -34 -84 -207 -77 -219 3 -6 -9 6 -26 26 -39 46 -90 65
-124 46 -29 -15 -97 -94 -97 -112 0 -22 -36 -47 -56 -39 -11 4 -4 -7 16 -26
23 -22 26 -28 10 -17 -48 31 -105 59 -145 72 -39 12 -39 13 -10 14 29 1 29 2
7 12 -15 7 -21 17 -17 27 3 9 -4 5 -15 -9 -36 -44 -13 -98 67 -162 77 -61 158
-87 185 -60 13 13 14 64 3 122 -5 27 0 47 22 90 25 48 32 55 62 58 24 3 40 -3
58 -20 34 -32 64 -83 68 -115 3 -32 24 -45 94 -58 l54 -10 1 -83 c1 -71 4 -86
21 -98 29 -21 64 -9 108 36 31 33 41 38 57 30 50 -27 87 5 75 62 -6 26 -9 29
-17 15 -5 -10 -6 -23 -2 -30 4 -6 -6 0 -22 14 -16 15 -36 29 -44 32 -13 5 -13
6 0 6 9 1 26 -7 39 -16 14 -9 21 -12 18 -6 -4 6 -23 20 -42 32 l-36 21 -11
-25 c-8 -19 -8 -31 0 -50 10 -23 8 -29 -24 -65 -52 -57 -88 -55 -86 5 2 70 16
110 47 139 36 32 96 171 116 269 10 45 9 49 -20 86 l-31 38 45 5 c59 7 75 22
75 70 0 33 -3 39 -17 34 -9 -4 -20 -1 -25 6 -8 10 -11 10 -15 0 -2 -6 -10 -9
-16 -5 -7 4 -6 -1 2 -10 7 -9 17 -15 21 -12 5 3 11 1 15 -5 9 -14 -28 -12 -49
3 -16 12 -21 36 -29 138 -1 16 -7 25 -14 22 -7 -3 -10 3 -6 16 3 11 10 19 15
18 6 -1 13 4 15 11 6 17 -41 16 -76 -2 -41 -22 -60 -58 -68 -126 l-6 -61 -43
42 c-24 23 -47 38 -54 34 -15 -9 -43 15 -31 29 16 21 20 94 5 100 -8 3 -14 -1
-14 -9 0 -8 -7 -15 -15 -15 -11 0 -10 -5 6 -21 15 -15 18 -24 10 -32 -12 -12
-41 8 -41 29 0 7 -9 29 -21 48 -20 35 -29 44 -29 29z"/>
</g>
</svg>
